<svg height="300px" xmlns="http://www.w3.org/2000/svg" viewBox="0 0 1440 320" preserveAspectRatio="none">
    <path fill="#50041f" fill-opacity="0.5" d="M0,96L60,112C120,128,240,160,360,149.3C480,139,600,85,720,74.7C840,64,960,96,1080,122.7C1200,149,1320,171,1380,181.3L1440,192L1440,320L1380,320C1320,320,1200,320,1080,320C960,320,840,320,720,320C600,320,480,320,360,320C240,320,120,320,60,320L0,320Z"></path>
    <path fill="#e74d45" fill-opacity="0.7" d="M0,96L60,117.3C120,139,240,181,360,170.7C480,160,600,96,720,74.7C840,53,960,75,1080,96C1200,117,1320,139,1380,149.3L1440,160L1440,320L1380,320C1320,320,1200,320,1080,320C960,320,840,320,720,320C600,320,480,320,360,320C240,320,120,320,60,320L0,320Z"></path>
    <path fill="#b31a35" fill-opacity="0.9" d="M0,96L60,101.3C120,107,240,117,360,112C480,107,600,85,720,106.7C840,128,960,192,1080,218.7C1200,245,1320,235,1380,229.3L1440,224L1440,320L1380,320C1320,320,1200,320,1080,320C960,320,840,320,720,320C600,320,480,320,360,320C240,320,120,320,60,320L0,320Z"></path>
</svg>